<svg width="960" height="540" viewBox="0 0 960 540" fill="none" xmlns="http://www.w3.org/2000/svg">
<rect width="960" height="540" rx="18" fill="#0B1529"/>
<rect x="28" y="28" width="904" height="484" rx="16" fill="#15294D"/>
<rect x="64" y="74" width="286" height="26" rx="8" fill="#90C8FF"/>
<rect x="64" y="120" width="460" height="14" rx="7" fill="#6E87AD"/>
<rect x="64" y="146" width="510" height="14" rx="7" fill="#6E87AD"/>
<rect x="64" y="206" width="396" height="266" rx="10" fill="#1C3156"/>
<rect x="480" y="206" width="388" height="122" rx="10" fill="#1C3156"/>
<rect x="480" y="350" width="388" height="122" rx="10" fill="#1C3156"/>
<rect x="92" y="240" width="340" height="16" rx="8" fill="#6E87AD"/>
<rect x="92" y="270" width="280" height="16" rx="8" fill="#6E87AD"/>
<circle cx="674" cy="267" r="44" fill="#90C8FF"/>
<rect x="520" y="393" width="300" height="16" rx="8" fill="#6E87AD"/>
<rect x="520" y="421" width="240" height="16" rx="8" fill="#6E87AD"/>
</svg>
