<svg width="24" height="24" viewBox="0 0 24 24" fill="none" xmlns="http://www.w3.org/2000/svg" role="img" aria-label="LinkedIn logo">
  <rect width="24" height="24" rx="5" fill="#0A66C2"/>
  <path d="M7.24 9.16H4.88V19H7.24V9.16Z" fill="white"/>
  <path d="M6.06 8.1C6.82 8.1 7.44 7.48 7.44 6.72C7.44 5.96 6.82 5.34 6.06 5.34C5.3 5.34 4.68 5.96 4.68 6.72C4.68 7.48 5.3 8.1 6.06 8.1Z" fill="white"/>
  <path d="M11.02 9.16H8.76V19H11.12V14.13C11.12 12.84 11.36 11.58 12.95 11.58C14.52 11.58 14.54 13.06 14.54 14.21V19H16.9V13.72C16.9 11.12 16.34 9.12 13.39 9.12C11.98 9.12 11.04 9.89 10.64 10.62H10.6V9.16H11.02Z" fill="white"/>
</svg>
