<svg width="960" height="540" viewBox="0 0 960 540" fill="none" xmlns="http://www.w3.org/2000/svg">
<defs>
  <linearGradient id="consentBg" x1="0" y1="0" x2="960" y2="540" gradientUnits="userSpaceOnUse">
    <stop stop-color="#0F2A25"/>
    <stop offset="1" stop-color="#114236"/>
  </linearGradient>
</defs>
<rect width="960" height="540" rx="20" fill="url(#consentBg)"/>
<rect x="30" y="28" width="900" height="66" rx="12" fill="#1B5A49"/>
<rect x="50" y="48" width="180" height="24" rx="7" fill="#9CEFD8"/>
<rect x="30" y="118" width="430" height="394" rx="12" fill="#17503F"/>
<rect x="480" y="118" width="450" height="120" rx="12" fill="#17503F"/>
<rect x="480" y="252" width="450" height="120" rx="12" fill="#17503F"/>
<rect x="480" y="386" width="450" height="126" rx="12" fill="#17503F"/>
<rect x="52" y="148" width="386" height="22" rx="8" fill="#9CEFD8"/>
<rect x="52" y="184" width="386" height="14" rx="7" fill="#74CDB5"/>
<rect x="52" y="208" width="320" height="14" rx="7" fill="#74CDB5"/>
<rect x="52" y="232" width="350" height="14" rx="7" fill="#74CDB5"/>
<rect x="504" y="146" width="130" height="18" rx="9" fill="#9CEFD8"/>
<rect x="648" y="146" width="130" height="18" rx="9" fill="#74CDB5"/>
<rect x="792" y="146" width="116" height="18" rx="9" fill="#F6C35C"/>
<circle cx="540" cy="312" r="18" fill="#55D39B"/>
<circle cx="540" cy="446" r="18" fill="#FF8B7B"/>
<rect x="570" y="304" width="330" height="14" rx="7" fill="#74CDB5"/>
<rect x="570" y="328" width="280" height="14" rx="7" fill="#74CDB5"/>
<rect x="570" y="438" width="330" height="14" rx="7" fill="#74CDB5"/>
<rect x="570" y="462" width="240" height="14" rx="7" fill="#74CDB5"/>
</svg>
