<svg width="960" height="540" viewBox="0 0 960 540" fill="none" xmlns="http://www.w3.org/2000/svg">
<rect width="960" height="540" rx="18" fill="#0E1628"/>
<rect x="24" y="24" width="912" height="56" rx="12" fill="#182844"/>
<rect x="38" y="40" width="220" height="24" rx="6" fill="#7BB0FF"/>
<rect x="24" y="104" width="292" height="408" rx="12" fill="#15223A"/>
<rect x="336" y="104" width="600" height="280" rx="12" fill="#15223A"/>
<rect x="336" y="398" width="600" height="114" rx="12" fill="#15223A"/>
<rect x="42" y="126" width="214" height="20" rx="6" fill="#7BB0FF"/>
<rect x="42" y="160" width="250" height="12" rx="6" fill="#5F77A0"/>
<rect x="42" y="184" width="250" height="12" rx="6" fill="#5F77A0"/>
<rect x="360" y="128" width="260" height="20" rx="6" fill="#7BB0FF"/>
<rect x="360" y="164" width="548" height="12" rx="6" fill="#5F77A0"/>
<rect x="360" y="188" width="548" height="12" rx="6" fill="#5F77A0"/>
</svg>
