<svg width="960" height="540" viewBox="0 0 960 540" fill="none" xmlns="http://www.w3.org/2000/svg">
<defs>
  <linearGradient id="dsarBg" x1="0" y1="0" x2="960" y2="540" gradientUnits="userSpaceOnUse">
    <stop stop-color="#0F1E3A"/>
    <stop offset="1" stop-color="#112A4D"/>
  </linearGradient>
</defs>
<rect width="960" height="540" rx="20" fill="url(#dsarBg)"/>
<rect x="28" y="28" width="904" height="64" rx="12" fill="#1B3B6F"/>
<rect x="48" y="48" width="220" height="24" rx="6" fill="#8DC2FF"/>
<rect x="28" y="112" width="270" height="400" rx="12" fill="#15345E"/>
<rect x="314" y="112" width="618" height="250" rx="12" fill="#15345E"/>
<rect x="314" y="378" width="618" height="134" rx="12" fill="#15345E"/>
<rect x="48" y="136" width="220" height="18" rx="6" fill="#8DC2FF"/>
<rect x="48" y="168" width="190" height="12" rx="6" fill="#6E93C8"/>
<rect x="48" y="188" width="210" height="12" rx="6" fill="#6E93C8"/>
<rect x="48" y="208" width="175" height="12" rx="6" fill="#6E93C8"/>
<rect x="336" y="138" width="230" height="20" rx="6" fill="#8DC2FF"/>
<rect x="336" y="170" width="570" height="12" rx="6" fill="#6E93C8"/>
<rect x="336" y="192" width="570" height="12" rx="6" fill="#6E93C8"/>
<rect x="336" y="214" width="390" height="12" rx="6" fill="#6E93C8"/>
<rect x="336" y="406" width="180" height="18" rx="9" fill="#F3B24D"/>
<rect x="532" y="406" width="180" height="18" rx="9" fill="#55D39B"/>
<rect x="728" y="406" width="180" height="18" rx="9" fill="#FF7F7F"/>
</svg>
