<svg width="960" height="540" viewBox="0 0 960 540" fill="none" xmlns="http://www.w3.org/2000/svg">
<rect width="960" height="540" rx="18" fill="#0D1426"/>
<rect x="24" y="24" width="912" height="68" rx="12" fill="#1C2C4B"/>
<rect x="46" y="45" width="210" height="24" rx="6" fill="#8EC4FF"/>
<rect x="24" y="116" width="912" height="398" rx="12" fill="#15233B"/>
<rect x="52" y="146" width="856" height="54" rx="8" fill="#1E3151"/>
<rect x="52" y="216" width="856" height="54" rx="8" fill="#1E3151"/>
<rect x="52" y="286" width="856" height="54" rx="8" fill="#1E3151"/>
<rect x="52" y="356" width="856" height="54" rx="8" fill="#1E3151"/>
<rect x="74" y="165" width="280" height="16" rx="8" fill="#6F89AF"/>
<rect x="74" y="235" width="240" height="16" rx="8" fill="#6F89AF"/>
<rect x="74" y="305" width="270" height="16" rx="8" fill="#6F89AF"/>
<rect x="74" y="375" width="250" height="16" rx="8" fill="#6F89AF"/>
<rect x="738" y="160" width="140" height="24" rx="12" fill="#E7A72B"/>
<rect x="738" y="230" width="140" height="24" rx="12" fill="#8EC4FF"/>
<rect x="738" y="300" width="140" height="24" rx="12" fill="#4ABF8A"/>
<rect x="738" y="370" width="140" height="24" rx="12" fill="#E86A6A"/>
</svg>
