<svg width="960" height="540" viewBox="0 0 960 540" fill="none" xmlns="http://www.w3.org/2000/svg">
<rect width="960" height="540" rx="18" fill="#0A1325"/>
<rect x="24" y="24" width="912" height="62" rx="10" fill="#1A2A49"/>
<rect x="44" y="43" width="250" height="22" rx="6" fill="#8CC5FF"/>
<rect x="24" y="106" width="912" height="408" rx="10" fill="#11203A"/>
<rect x="52" y="136" width="420" height="350" rx="10" fill="#1D3150"/>
<rect x="488" y="136" width="420" height="166" rx="10" fill="#1D3150"/>
<rect x="488" y="320" width="420" height="166" rx="10" fill="#1D3150"/>
<rect x="74" y="168" width="376" height="20" rx="8" fill="#6E86AE"/>
<rect x="74" y="200" width="220" height="14" rx="7" fill="#6E86AE"/>
<rect x="74" y="226" width="300" height="14" rx="7" fill="#6E86AE"/>
<circle cx="700" cy="219" r="44" fill="#8CC5FF"/>
<rect x="560" y="400" width="306" height="16" rx="8" fill="#6E86AE"/>
<rect x="560" y="428" width="250" height="16" rx="8" fill="#6E86AE"/>
</svg>
