<svg width="960" height="540" viewBox="0 0 960 540" fill="none" xmlns="http://www.w3.org/2000/svg">
<defs>
  <linearGradient id="reportsBg" x1="0" y1="0" x2="960" y2="540" gradientUnits="userSpaceOnUse">
    <stop stop-color="#0E2A2A"/>
    <stop offset="1" stop-color="#153A3A"/>
  </linearGradient>
</defs>
<rect width="960" height="540" rx="20" fill="url(#reportsBg)"/>
<rect x="24" y="24" width="912" height="62" rx="10" fill="#1F5757"/>
<rect x="44" y="43" width="250" height="22" rx="6" fill="#AEEBE9"/>
<rect x="24" y="106" width="912" height="408" rx="10" fill="#184444"/>
<rect x="52" y="136" width="420" height="350" rx="10" fill="#205555"/>
<rect x="488" y="136" width="420" height="166" rx="10" fill="#205555"/>
<rect x="488" y="320" width="420" height="166" rx="10" fill="#205555"/>
<rect x="74" y="168" width="376" height="20" rx="8" fill="#C7F4F2"/>
<rect x="74" y="200" width="220" height="14" rx="7" fill="#8ED0CD"/>
<rect x="74" y="226" width="300" height="14" rx="7" fill="#8ED0CD"/>
<path d="M84 448L150 384L210 420L290 332L360 372L430 280" stroke="#F6CD6F" stroke-width="8" stroke-linecap="round" stroke-linejoin="round"/>
<circle cx="700" cy="220" r="44" fill="#7AD5CE"/>
<rect x="560" y="400" width="306" height="16" rx="8" fill="#8ED0CD"/>
<rect x="560" y="428" width="250" height="16" rx="8" fill="#8ED0CD"/>
</svg>
