<svg width="960" height="540" viewBox="0 0 960 540" fill="none" xmlns="http://www.w3.org/2000/svg">
<rect width="960" height="540" rx="18" fill="#0E1528"/>
<rect x="24" y="24" width="912" height="70" rx="11" fill="#1B2C4A"/>
<rect x="44" y="48" width="240" height="22" rx="6" fill="#8FC6FF"/>
<rect x="24" y="114" width="912" height="400" rx="11" fill="#14233B"/>
<rect x="52" y="148" width="856" height="72" rx="10" fill="#1C3050"/>
<rect x="52" y="236" width="856" height="72" rx="10" fill="#1C3050"/>
<rect x="52" y="324" width="856" height="72" rx="10" fill="#1C3050"/>
<rect x="52" y="412" width="856" height="72" rx="10" fill="#1C3050"/>
<rect x="78" y="176" width="280" height="16" rx="8" fill="#6E85AD"/>
<rect x="78" y="264" width="250" height="16" rx="8" fill="#6E85AD"/>
<rect x="78" y="352" width="270" height="16" rx="8" fill="#6E85AD"/>
<rect x="78" y="440" width="290" height="16" rx="8" fill="#6E85AD"/>
<rect x="760" y="168" width="120" height="24" rx="12" fill="#E86A6A"/>
<rect x="760" y="256" width="120" height="24" rx="12" fill="#F1B03A"/>
<rect x="760" y="344" width="120" height="24" rx="12" fill="#8FC6FF"/>
<rect x="760" y="432" width="120" height="24" rx="12" fill="#4ABF8A"/>
</svg>
