<svg width="960" height="540" viewBox="0 0 960 540" fill="none" xmlns="http://www.w3.org/2000/svg">
<defs>
  <linearGradient id="riskBg" x1="0" y1="0" x2="960" y2="540" gradientUnits="userSpaceOnUse">
    <stop stop-color="#1E1830"/>
    <stop offset="1" stop-color="#2A2340"/>
  </linearGradient>
</defs>
<rect width="960" height="540" rx="20" fill="url(#riskBg)"/>
<rect x="24" y="24" width="912" height="70" rx="11" fill="#3A3260"/>
<rect x="44" y="48" width="240" height="22" rx="6" fill="#C4BCFF"/>
<rect x="24" y="114" width="912" height="400" rx="11" fill="#322B52"/>
<rect x="52" y="148" width="856" height="72" rx="10" fill="#43386A"/>
<rect x="52" y="236" width="856" height="72" rx="10" fill="#43386A"/>
<rect x="52" y="324" width="856" height="72" rx="10" fill="#43386A"/>
<rect x="52" y="412" width="856" height="72" rx="10" fill="#43386A"/>
<rect x="78" y="176" width="280" height="16" rx="8" fill="#DAD5FF"/>
<rect x="78" y="264" width="250" height="16" rx="8" fill="#DAD5FF"/>
<rect x="78" y="352" width="270" height="16" rx="8" fill="#DAD5FF"/>
<rect x="78" y="440" width="290" height="16" rx="8" fill="#DAD5FF"/>
<rect x="760" y="168" width="120" height="24" rx="12" fill="#FF7F7F"/>
<rect x="760" y="256" width="120" height="24" rx="12" fill="#F2C164"/>
<rect x="760" y="344" width="120" height="24" rx="12" fill="#8BB5FF"/>
<rect x="760" y="432" width="120" height="24" rx="12" fill="#67D7A5"/>
</svg>
