<svg width="960" height="540" viewBox="0 0 960 540" fill="none" xmlns="http://www.w3.org/2000/svg">
<defs>
  <linearGradient id="scanBg" x1="0" y1="0" x2="960" y2="540" gradientUnits="userSpaceOnUse">
    <stop stop-color="#1E2430"/>
    <stop offset="1" stop-color="#2C3340"/>
  </linearGradient>
</defs>
<rect width="960" height="540" rx="20" fill="url(#scanBg)"/>
<rect x="26" y="26" width="908" height="64" rx="11" fill="#3A4559"/>
<rect x="46" y="45" width="240" height="24" rx="6" fill="#A9C8FF"/>
<rect x="26" y="108" width="908" height="406" rx="11" fill="#323C4D"/>
<rect x="56" y="140" width="848" height="78" rx="10" fill="#3D4A5F"/>
<rect x="56" y="236" width="848" height="78" rx="10" fill="#3D4A5F"/>
<rect x="56" y="332" width="848" height="78" rx="10" fill="#3D4A5F"/>
<rect x="56" y="428" width="848" height="58" rx="10" fill="#3D4A5F"/>
<rect x="82" y="168" width="310" height="16" rx="8" fill="#BFD6FF"/>
<rect x="82" y="264" width="260" height="16" rx="8" fill="#BFD6FF"/>
<rect x="82" y="360" width="280" height="16" rx="8" fill="#BFD6FF"/>
<rect x="82" y="446" width="220" height="16" rx="8" fill="#BFD6FF"/>
<circle cx="842" cy="176" r="18" fill="#4AD395"/>
<circle cx="842" cy="272" r="18" fill="#4AD395"/>
<circle cx="842" cy="368" r="18" fill="#FFB94D"/>
<circle cx="842" cy="454" r="18" fill="#FF8B7B"/>
</svg>
